<?xml version="1.0" encoding="utf-8"?>
<!-- Generator: Adobe Illustrator 28.2.0, SVG Export Plug-In . SVG Version: 6.00 Build 0)  -->
<svg version="1.1" id="Layer_1" xmlns="http://www.w3.org/2000/svg" xmlns:xlink="http://www.w3.org/1999/xlink" x="0px" y="0px"
	 viewBox="0 0 2000 2000" style="enable-background:new 0 0 2000 2000;" xml:space="preserve">
<style type="text/css">
	.st0{fill:#AF3800;}
	.st1{fill:#FF9F19;}
</style>
<g>
	<path class="st0" d="M1473.6,1019.1c-35.1,16.9-74.4,25.7-114.1,25.7c-2.7,0-5.5,0-8.3-0.1l-7.8-0.3l-5.9-1.4
		c-0.3-0.1-3.7-0.7-8.6-1.3c-4.1-0.5-8.4-0.9-12.9-1.2c-6.2-0.6-12.7-0.8-21.4-0.8h-5.4c-3.4,0.1-6.7,0.2-10.1,0.4
		c-0.9,87.8-27.7,161.1-80.4,219.9c-53.7,59.9-124.3,89.9-211.6,89.9c-87.4,0-158.6-30-213.5-89.9c-38.6-42-63.7-91.6-75-148.4
		c-3-3.9-6-7.7-8.9-11.2c-12.3-14.8-22.7-25.1-32.4-32.3c-10.8-8.1-22.9-14-37.7-20.5c-14.2-6-31.4-12.2-50.6-18.2
		c-27.2-8.7-48.9-17.5-67.6-27.8c-0.8,11.1-1.1,22.4-1.1,33.8c0,133.5,47.7,248.1,143.2,343.6c95.5,95.5,210,143.2,343.6,143.2
		c133.5,0,248.1-47.7,343.6-143.2c95.5-95.5,143.2-210.1,143.2-343.6C1473.9,1030,1473.9,1024.6,1473.6,1019.1z"/>
	<path class="st1" d="M1607.8,745.7c-1.2,18.1-4,38-9,56.2c-9.8,37-26.7,71.5-49.5,101.7c-23.1,30-52.3,55.6-86.3,73.2
		c-33.8,17.9-72.7,26.6-110.5,25.4l-3.4-0.1l-1.4-0.3c-3.2-0.8-8.9-1.6-13.5-2.2c-4.9-0.6-9.9-1-14.9-1.4c-10-0.8-20.3-0.9-30.5-0.8
		c-20.5,0.3-41.1,2.3-61.5,6.1c-20.4,3.8-40.8,9.4-60.7,17.1c-20.1,7.5-39.5,17.4-59,28.4c13.6-17.9,30.3-33.4,48.7-47.1
		c18.6-13.4,39.1-24.8,60.8-33.3c21.6-8.5,44.4-14.6,67.7-18c11.7-1.8,23.4-2.8,35.3-3.2c6-0.3,11.9-0.2,18,0
		c5,0.2,9.5,0.4,15.1,0.9c28.5-1.4,56.1-9.7,80-24.8c24.3-14.7,44.9-35.7,60.9-59.7c16-23.9,27.5-51.1,33.1-78.9
		c2.9-14,4.2-27.6,4.3-42.6c0.3-14.6-0.5-29.1-2.7-42.9c-4.4-27.7-14.4-52.9-30-72.1c-15.3-19.6-36.5-33.5-61.6-42
		c-12.5-4.3-26-7.2-40-9c-14-1.8-26-2-38-0.3c-11.9,1.6-23.7,5.3-37,10.9c-10.6,4.3-22.1,9.9-34.1,15.7c-0.8,3.2-1.6,6.4-2.5,9.5
		c-9.4,35-27.5,67.7-49.7,94c-22,26.8-47,47.9-67.9,71c-21,22.9-36.4,50.7-40.8,83.6c-2.4-16.3-1.5-33.2,2.2-49.9
		c3.9-16.7,11.4-32.3,19.7-47.2c17.1-29.5,38-54.7,53.1-81.2c15.6-26.3,25.4-53.6,29.4-82.1c2-14.3,2.6-28.9,2.3-43.5l-0.4-11
		l-0.9-10.2c-1-6.7-2.2-13.4-3.8-20c-6.4-26.4-19.3-50.7-36.4-71.8c-17.4-20.9-38.9-38.7-63.1-52.3
		c-48.3-27.2-106.2-38.2-161.8-32.1c-55.3,5.6-107.5,29.7-145.4,69.2c-19.2,19.5-34.3,42.9-45.3,68.2
		c-10.7,25.1-17.3,54.1-17.3,79.2c0.2,25.7,8.6,50.8,23.8,76.1c15,25.3,35.6,50.2,54.7,78c9.4,14,18.6,28.8,26.1,44.7
		c7.2,15.9,13.1,32.9,15.5,50.3c2.6,17.4,2.2,34.8-0.4,51.5c-3.2,16.7-8.3,32.5-14.9,47.5c4.1-32.5,3.1-64.9-8.1-93.1
		c-10.8-28.2-29.6-51.7-51.4-74c-21.5-22.6-46.2-44.4-68.3-72.4c-11.1-14-21.1-29.7-29.1-47.2c-5.2-11.2-9.3-23.1-12-35.2
		c-9.2-4-17.9-7.7-25.6-10.6c-7.9-2.9-15.3-5-23.2-6.5c-7.8-1.5-16.3-2.4-25.2-2.8c-34.4-2.2-66.8,5.5-93.8,23.9
		c-27,18.1-47.8,46.6-59.8,79.6c-6,16.6-10,34.1-12.1,52.1c-0.9,8.9-1.6,18.6-1.4,26.8c0.1,8.6,0.8,17.1,2.3,25.6
		c5.7,33.9,23.2,67.1,47.4,93.3c12.3,13,26.4,24.7,42,34.1c15.7,9.7,32.1,17.4,50.6,22.2c19.7,5.6,40.5,10.7,61.3,19.8
		c20.8,8.8,41.4,22.9,56.7,40.9c15.6,17.8,26.2,38.1,33.3,58.7c7.1,20.6,11.3,41.5,12.5,62.9c-13.1-16.9-24.9-33.8-37.6-49.1
		c-12.7-15.2-25.7-28.9-39.8-39.3c-14.2-10.6-29.3-18-46-25.3c-16.9-7.1-35.5-13.7-54.8-19.8c-20.9-6.6-42.6-14.7-62.2-25.8
		c-19.9-10.9-38.5-24.7-55-40.7c-32.9-32.3-57.4-73.3-67.8-119.8c-2.6-11.6-4.3-23.4-4.9-35.4c-0.7-12.1-0.4-22.9,0.3-34.5
		c1.4-22.8,5.4-45.7,12.4-68c13.8-44.5,40.9-87.2,80.6-117c19.7-14.9,42.3-26.2,66-33.4c23.4-7.2,48.4-10.4,71.8-10.3
		c11.5-0.1,23.5,0.4,35.9,2.1c12,1.5,24.3,4.3,35.7,7.7c2.6-14.8,6.6-29.4,11.4-43.7c12-35.3,31.6-68.1,56.3-96.3
		c24.9-28,55.4-51.2,89-68c33.7-16.5,70.3-26.9,107.1-30.6c73.3-7.6,149,8.2,212.1,47.9c31.4,19.7,59.6,45.5,81.2,76.3
		c21.9,30.6,36.7,66.8,42.1,104.3c0.1,0.6,0.2,1.1,0.3,1.7c16-6.6,34.1-12.2,53-14.7c20.9-3.2,42.6-2.1,61.5,0.5
		c19,2.7,38.2,7,57.1,13.8c18.8,7,37.3,16.4,54.2,28.4c16.9,12.3,32.3,27,44.6,43.8c25.2,33.7,37.7,73.7,42.1,111.8
		C1608.8,708.1,1609.1,727.1,1607.8,745.7z"/>
	<path class="st0" d="M1231,1377.9c0,0,81.8,28.1,124.1,113.6c42.3,85.5,38.6,174.9-7.6,211.6c-46.2,36.7-94.8,26-117.8-0.4
		c-23-26.5-25.2-48.8-23.5-90.1c1.6-41.4-6.4-125.7-68.5-188.3l44.3-15.3c0,0,33.6,8,61.2,32.9c39.8,36,54.2,110.4,54.2,110.4
		s4-111.9-77.6-162.6L1231,1377.9z"/>
</g>
</svg>
