<?xml version="1.0" encoding="utf-8"?>
<!-- Generator: Adobe Illustrator 28.2.0, SVG Export Plug-In . SVG Version: 6.00 Build 0)  -->
<svg version="1.1" id="Layer_1" xmlns="http://www.w3.org/2000/svg" xmlns:xlink="http://www.w3.org/1999/xlink" x="0px" y="0px"
	 viewBox="0 0 500 500" style="enable-background:new 0 0 500 500;" xml:space="preserve">
<style type="text/css">
	.st0{display:none;}
	.st1{display:inline;fill:#FF9F19;}
	.st2{fill:#FF9F19;}
</style>
<g id="call" class="st0">
	<path id="Appel_00000096771062227930614010000003268722828248759202_" class="st1" d="M250,149.1c-55.8,0-100.9,45.2-100.9,100.9
		S194.3,350.9,250,350.9c55.8,0,100.9-45.2,100.9-100.9C350.9,194.2,305.8,149.1,250,149.1z M311.7,295.7l-6.3,6.3
		c-10.7,10.7-27.9,10.7-38.6,0c-12.3-10.7-24.2-21.8-35.7-33.3s-22.6-23.4-33.3-35.7c-5.3-5.3-8-12.3-8-19.3s2.7-14,8-19.3l6.3-6.3
		c4.7-4.7,12.2-4.7,16.9,0l16.8,16.8c2.7,2.7,2.7,7,0,9.6l-5.1,5.2c-3.3,3.3-3.3,8.7,0,12c11,12.6,22.8,24.4,35.4,35.4
		c1.7,1.7,3.8,2.5,6,2.5s4.4-0.8,6-2.5l5.2-5.2c2.7-2.7,7-2.7,9.6,0l16.8,16.8C316.4,283.5,316.4,291,311.7,295.7z"/>
</g>
<g id="email" class="st0">
	<path id="Email_00000063593399238151378470000008711124832026642309_" class="st1" d="M250,149.1c-55.8,0-100.9,45.2-100.9,100.9
		c0,55.8,45.2,100.9,100.9,100.9S350.9,305.8,350.9,250S305.8,149.1,250,149.1z M195.8,204.2h108.6c2.7,0,3.9,3.2,1.8,4.8l-47.3,36
		c-5.3,4-12.9,4-18.2,0L194,209C191.9,207.4,193.1,204.2,195.8,204.2z M307.6,288.8c0,4.9-4.3,9-9.6,9h-95.9c-5.3,0-9.6-4-9.6-9
		v-70.7c0-1.2,1.5-1.8,2.4-1l35.5,33l-24.1,30.8c-0.8,0.9,0.5,2.1,1.5,1.4l31.6-26.9c3.1,1.8,6.6,2.8,10.3,2.8
		c3.6,0,7.1-0.9,10.1-2.7l31.5,26.8c1,0.8,2.3-0.4,1.5-1.4L269,250.2l36.3-33.2c0.9-0.8,2.4-0.2,2.4,1L307.6,288.8L307.6,288.8z"/>
</g>
<g id="adress" class="st0">
	<path id="Adress_00000078746402176904099520000004278328429776635013_" class="st1" d="M269,226.9c0,10-7.5,18.2-17.2,19.4
		c-0.8,0.1-1.5,0.1-2.3,0.1s-1.6,0-2.3-0.1c-9.7-1.2-17.2-9.4-17.2-19.4c0-10.8,8.7-19.5,19.5-19.5C260.2,207.4,269,216.1,269,226.9
		z M350.9,250c0,55.8-45.2,100.9-100.9,100.9c-55.8,0-100.9-45.2-100.9-100.9c0-55.8,45.2-100.9,100.9-100.9
		C305.8,149.1,350.9,194.2,350.9,250z M293.1,226.9c0-24.1-19.5-43.6-43.6-43.6s-43.6,19.5-43.6,43.6c0,7,1.6,13.5,4.5,19.4
		l34.7,70.9c1.9,3.8,7.3,3.8,9.1,0l34.4-70.9C291.5,240.4,293.1,233.8,293.1,226.9z"/>
</g>
<g id="clock">
	<path class="st2" d="M250,149c-55.8,0-101,45.2-101,101s45.2,101,101,101s101-45.2,101-101S305.8,149,250,149z M289,302.1
		l-51.9-51.9l0.1-0.1h-0.1V195h16v48.5l47.3,47.3L289,302.1z"/>
</g>
</svg>
